<?xml version="1.0" encoding="UTF-8" standalone="no"?>
<svg
   xmlns:dc="http://purl.org/dc/elements/1.1/"
   xmlns:cc="http://creativecommons.org/ns#"
   xmlns:rdf="http://www.w3.org/1999/02/22-rdf-syntax-ns#"
   xmlns:svg="http://www.w3.org/2000/svg"
   xmlns="http://www.w3.org/2000/svg"
   viewBox="0 0 342.77332 584.02667"
   height="584.02667"
   width="342.77332"
   xml:space="preserve"
   id="svg2"
   version="1.1"><metadata
     id="metadata8"><rdf:RDF><cc:Work
         rdf:about=""><dc:format>image/svg+xml</dc:format><dc:type
           rdf:resource="http://purl.org/dc/dcmitype/StillImage" /></cc:Work></rdf:RDF></metadata><defs
     id="defs6" /><g
     transform="matrix(1.3333333,0,0,-1.3333333,0,584.02667)"
     id="g10"><g
       transform="scale(0.1)"
       id="g12"><path
         id="path14"
         style="fill:#ffffff;fill-opacity:1;fill-rule:nonzero;stroke:none"
         d="m 2450,1800.2 c 64.1,11.5 22,-30.5 0,0 v 0" /><path
         id="path16"
         style="fill:#ffffff;fill-opacity:1;fill-rule:nonzero;stroke:none"
         d="m 2470,1920.2 c -22,-30.5 -64.1,11.5 0,0 v 0" /><path
         id="path18"
         style="fill:#ffffff;fill-opacity:1;fill-rule:nonzero;stroke:none"
         d="m 2450,1800.2 c -14.5,6.21 1,12.1 0,0 v 0" /><path
         id="path20"
         style="fill:#ffffff;fill-opacity:1;fill-rule:nonzero;stroke:none"
         d="m 2440,1850.2 c 3,-17.9 -38.8,-0.6 -30,20 22.2,5.5 14.2,-19.1 30,-20" /><path
         id="path22"
         style="fill:#ffffff;fill-opacity:1;fill-rule:nonzero;stroke:none"
         d="m 2400,1920.2 c 23.5,-16.69 -3.7,0.9 -20,0 -37.2,2.91 29.4,24.9 20,0" /><path
         id="path24"
         style="fill:#ffffff;fill-opacity:1;fill-rule:nonzero;stroke:none"
         d="m 2210,1870.2 c 0,-6.69 0,-13.3 0,-20 -10,0 -20,0 -30,0 0,6.7 0,13.31 0,20 10,0 20,0 30,0" /><path
         id="path26"
         style="fill:#231f20;fill-opacity:1;fill-rule:nonzero;stroke:none"
         d="m 200,250.199 c 21.801,11.5 64.703,2 70,30 -20.699,4.602 -75,17 -70,-30 z m 70,110 c -64,11.5 -22.004,-30.5 0,0 z M 290,1930.2 c 0.496,17.2 -7.699,25.6 -20,30 -0.496,-17.2 7.699,-25.6 20,-30 z M 310,260.199 c 0,6.699 0,13.313 0,20 -6.699,0 -13.301,0 -20,0 0,-6.687 0,-13.301 0,-20 6.699,0 13.301,0 20,0 z M 270,2180.2 c 59.902,-16.2 157.5,-20.4 150,60 -67.301,-6.8 -92.699,-6.8 -160,0 -7.203,-30.6 10.199,-36.4 10,-60 z m 260,230 c 4.199,22.5 54.801,-1.5 50,30 -16.699,0 -33.301,0 -50,0 3.902,-17.2 -14.801,-25.6 0,-30 z m 90,-150 c 1.301,13.1 1.5,72.4 -10,40 -1.301,-13.1 -1.5,-72.3 10,-40 z M 670,720.199 c -64,11.5 -22.004,-30.5 0,0 z m -50,-260 c 37.004,-7 44.199,15.813 40,50 -10,0 -20,0 -30,0 -8.398,-11.597 -13.199,-26.801 -10,-50 z m 90,130 c -19.102,4.301 -18.102,28.602 -50,20 7.301,-27.301 -19.902,-20.097 -20,-40 18.699,0.5 21.199,-7.699 10,-20 41.5,-8.097 37.5,29.102 60,40 z M 680,1860.2 c 0,6.7 0,13.31 0,20 -6.699,0 -13.301,0 -20,0 0,-6.69 0,-13.3 0,-20 6.699,0 13.301,0 20,0 z m -50,570 c 37.203,20.6 26.098,-14.3 70,-10 -0.199,36.5 -40.297,33.1 -60,50 4.301,19 21.5,25.1 20,50 -28.301,-8.3 -25.898,14.1 -50,10 33.801,-50.1 14.504,-34 20,-100 z m -10,-620 c 35.898,5.2 85,-1 120,0 -21.402,23.5 -114.902,77.2 -120,0 z M 710,510.199 c -25.199,10.102 34.902,17.301 30,40 -36.098,-4.5 -48.398,-25.597 -80,-10 2.402,-18.5 42.699,-49.398 50,-30 z m 50,50 c -3.301,23.313 -10.199,43.102 -30,50 -7.898,-34.5 9.301,-44 30,-50 z m 20,-80 c 11.199,40.5 -30.699,49.403 -50,30 -4.602,-31.199 21.402,-32 50,-30 z m 10,60 c -8.801,-20.597 25.898,-44.898 30,-20 -14.301,2.403 -16.898,16.5 -30,20 z m 20,-170 c -32.699,-65.097 28.598,-40.597 0,0 z m -50,250 c 20.602,6.102 69.504,-16.097 60,20 -29.703,-19.398 -49.301,13.403 -60,-20 z M 790,3400.2 c 36.301,33.7 107.898,32.1 140,70 -51.5,-12 -156.699,-23.1 -140,-70 z M 860,570.199 c 0.098,19.903 27.301,12.699 20,40 -7.797,2.199 -19.703,0.301 -20,10 -9.902,49.699 -9.398,-49.398 0,-50 z m 30,-160 c -13.398,1.5 -55.098,-15.699 -30,-20 11.801,4.903 22.699,10.699 30,20 z m 20,40 c 24.703,-32.09 61.801,23.313 20,30 -2.402,-14.301 -16.5,-16.898 -20,-30 z M 1050,3400.2 c 7.5,30.8 -27.4,19.2 -20,50 -92.898,-10.4 -137.402,-69.3 -240,-70 -3.398,-18.1 -12.598,-39.1 -10,-50 13.102,-54.2 92.598,-88.4 120,-110 1.602,11.8 -1.699,28.4 10,30 69.703,30.3 95,28.5 140,80 -25.5,31.3 -26.8,34.6 -50,30 23.3,6.7 7.5,52.5 50,40 z m 20,-1790 c -13.5,12.8 -20,30.41 -30,0 41.5,-1.4 2,-6.6 0,-20 17.2,-0.5 25.6,7.7 30,20 z m 30,1000 c -17.3,89.4 -17.6,195.8 -50,270 18.7,-87.9 12.5,-200.9 50,-270 z m -10,-1190 c -11.5,-20.5 15.7,-47.7 20,-20 -13.2,0.1 -9.1,17.5 -20,20 z m -70,210 c 55.1,38.31 123,63.71 180,100 -86,-26.4 -211.699,-62.5 -192.7,-167.7 0,-3.2 0.8,-7.3 2.7,-12.3 -1.1,4.2 -2.1,8.31 -2.7,12.3 -0.7,17.5 19.1,14.5 22.7,27.7 -29.1,8.71 -11.2,15 -10,40 z m 110,860 c -28.3,-8.3 -25.9,14.1 -50,10 -15.4,-47 36.7,-19.7 50,-10 z m 0,910 c 2.7,13.6 -6.2,39 -10,20 -2.7,-13.6 6.2,-39 10,-20 z m 10,-980 c 0,6.7 0,13.3 0,20 -10,0 -20,0 -30,0 0,-6.7 0,-13.3 0,-20 10,0 20,0 30,0 z m 0,-980 c 51.4,24.2 -34.4,25.81 0,0 z m 20,2780 c -17.7,-2.3 -50.1,10.1 -40,-20 22.8,-2.8 37.6,2.4 40,20 z m 0,-2710 c 29.1,-13.1 17,54.8 10,30 -0.5,-12.8 -12.8,-13.79 -10,-30 z m 30,-50 c 1.7,25.1 -22.4,24.3 -30,40 -9,-27.4 -36.8,19.5 -40,-20 36.5,6.5 53.3,-6.69 70,-20 z m 10,2300 c -5.5,14.5 11.7,51.7 -10,50 -15.8,-15 -7.4,-40.9 10,-50 z m 70,-80 c 21.5,35.7 53.7,131.3 10,170 -5.6,-29 -15.6,15.3 -30,10 5.7,-33.8 4.9,-132.4 -60,-110 12.1,-36.4 37.7,-21.3 20,-70 20,0 40,0 60,0 z m -60,-1950 c 41.2,-1.2 62.6,17.4 110,10 -7.9,41.7 -94.2,5.3 -110,-10 z m 60,1570 c 27.9,72.2 59,194.3 40,280 -25.6,-42.8 4.1,-78.8 -30,-110 -5.1,52.1 21.1,83.6 0,130 0.7,-64.2 -33.4,-146.4 -20,-190 -7,33.6 20.6,32.8 30,50 -9,-43.3 -29.6,-97.5 -50,-100 62,-21.9 -13.7,-62.2 20,-100 -10.1,30.1 22.3,17.7 40,20 8.8,46.6 -25.9,-13.8 -30,20 z m 110,-1550 c 9.3,47.6 -82.7,5.81 -40,-10 -3,40.81 20.9,5.3 40,10 z m 20,1830 c -50.8,7.1 -63.1,-76.4 -50,-100 16.6,33.4 33.4,66.6 50,100 z m 170,-1800 c -49.5,2.5 -141.2,-5.1 -140,-20 53.5,-0.2 110.7,-4 140,20 z m 140,-10 c -17.6,-5.7 -58.8,12.1 -60,-10 17.6,5.81 58.8,-12.09 60,10 z m 70,-180 c -51.4,-24.19 34.4,-25.8 0,0 z m 20,-1120.001 c 1.2,25 19.1,31.301 -10,40 1.7,-15 -3.6,-36.898 10,-40 z M 1910,2570.2 c 18.6,9.6 33.4,-29.9 40,0 -68.8,46.8 -184.4,79.2 -310,60 -80.5,-12.3 -249.8,-76.3 -260,-140 -10.4,-64.9 74.2,-117.1 100,-180 26.3,-64.1 13.1,-107.3 20,-190 -78.1,4.8 -124.2,-22.5 -190,-30 -32.8,140.5 -114.8,231.9 -210,310 -6.2,-27.1 12.7,-79.4 -10,-90 0,40 0,80 0,120 -19.7,3 -19.8,-13.5 -30,-20 -1.8,68.2 -26.9,113.1 -70,140 -70.602,-139.4 -134.801,-285.2 -240,-390 126.098,-27.2 230.496,-76.2 330,-130 -112.898,-7.9 -264.801,-27.5 -360,-20 -17.5,-23.1 -11.801,-62.3 -50,-40 7.699,10.1 47.898,37.2 20,50 -14.902,-32.09 -61.898,-84.4 -30,-130 28.699,23 6.801,50.81 20,70 23.199,-13.5 -1.898,-75.2 30,-80 3.398,43.31 -11.402,104.8 20,120 -1.602,-70.5 -5.602,-88.3 20,-130 -6,9.9 33.699,-10 20,-20 29.801,2.7 69.801,31.4 110,20 12.5,-3.5 16,-28.3 30,-30 4.199,-0.5 32.102,22.3 40,20 20,-5.8 3.301,-29.1 30,-30 16.801,-0.6 24.6,19.1 40,10 8,-43.5 129.1,9.6 160,-30 20.7,28.8 51.2,35.3 80,10 10.6,51.7 63.6,24 90,30 18.7,4.2 21.9,20.81 50,30 23.1,7.6 82.3,24 100,10 3.9,17.2 -14.8,25.6 0,30 79,-2.9 156,66.6 230,60 -29.2,-82.09 -249.4,-173.1 -240,-130 -21,-29 -67.9,-32.09 -90,-60 91.1,18.1 171.5,3.31 240,10 8.4,0.81 24.4,20.1 40,20 53.9,-0.2 44.5,0 90,40 66.4,58.4 48.8,96.1 80,200 22.8,76 3.7,140.6 50,210 7.5,80.8 -11.9,134.8 -10,210 52.4,-13.4 50.7,80.3 20,90 z m 300,-720 c 0,6.7 0,13.31 0,20 -10,0 -20,0 -30,0 0,-6.69 0,-13.3 0,-20 10,0 20,0 30,0 z m 170,70 c 16.3,0.9 43.5,-16.69 20,0 9.4,24.9 -57.2,2.91 -20,0 z m 30,-50 c -8.8,-20.6 33,-37.9 30,-20 -15.8,0.9 -7.8,25.5 -30,20 z m 60,50 c -64.1,11.5 -22,-30.5 0,0 z m -20,-120 c 22,-30.5 64.1,11.5 0,0 1,12.1 -14.5,6.21 0,0 z M 909.199,4140.6 c -16.601,9.8 -54.101,3.5 -69.199,19.6 -14.801,-4.4 3.902,-12.8 0,-30 -41.301,11.6 -66.898,-42.3 -90,-60 -18.301,-14 -42.203,-0.9 -60,-10 -155.398,-79.4 -232.402,-171.3 -150,-360 38.301,37.6 168.902,90.5 180,-10 -56.301,-7 -92.102,-34.5 -130,-60 -26.801,36.6 29.602,59.1 60,70 -62.5,25.9 -124.801,-77.7 -60,-130 -15,-17.6 -40.398,39 -40,70 -14.199,0.9 -28.301,1.7 -30,-10 -27.102,59.6 -100,73.3 -100,160 -7.996,-5.3 -16.199,-10.4 -30,-10 50.801,48.9 -45.801,198.3 20,230 -14.902,37.5 -16.5,30.2 -10,80 52.004,4.7 52.203,61.1 100,70 -10.801,52.9 -29.902,85.9 10,120 30.602,7.3 29.398,-17.2 60,-10 27.301,9 -30.398,22.4 0,40 100.801,0.6 152.699,45.3 250,70 -7.5,-30.8 34.504,-12.2 20,-50 39.301,40.2 49.703,-0.2 100,40 -2.898,-20.4 -27.102,-19.6 -30,-40 36,-6 29.504,30.5 60,30 -12.301,-49.3 36.1,-12.6 60,-30 3.8,-2.7 -25,-13.3 -20,-20 16.3,-21.8 87.3,-33.3 140,-50 24.2,-19.1 15.4,-71.3 60,-70 3.8,-39.5 11.6,-75.1 40,-90 -13,-76.4 34.2,-92.5 70,-120 -11.9,-47.1 39.2,-50.3 0,-70 3.1,-13.6 25,-8.3 40,-10 -8.5,-37 -7.1,-102.8 30,-80 9.5,-31.9 4.3,-65.3 40,-90 3.3,-36.6 -11.1,-55.6 -20,-80 -23.9,-6.1 -72.6,12.6 -80,-10 17,-44.7 92.7,-31.6 100,10 41.8,-31.5 109.7,-37 110,-110 200.3,-99.7 373.9,-226.1 490,-410 194.3,-239 274.2,-592.5 390,-910 61.6,-66.9 110.8,-193.4 90,-310 20.9,-52.8 74.1,-167.4 30,-220 116.4,-393.2 -109,-677.09 -470,-690 26.4,-86.899 104.7,-122.001 120,-220.001 60.7,-62.597 123.6,-123 160,-210 -19,-4.301 -25.1,-21.5 -50,-20 -1.1,-138.898 -43.1,-236.898 -130,-290 -3.4,-150 -41,-265.699 -200,-259.999781 -116.7,0 -233.3,0 -350,0 C 1608.7,44.3984 1608.5,89.5 1620,140.199 c 31.5,11.5 24.3,-15.699 40,-20 -6.7,21.903 -5.2,38.102 60,30 -1.6,11.699 -18.2,8.403 -30,10 13.5,46.5 35,85.102 70,110 -2.8,62.801 21.4,98.602 50,130 -33.3,-14.801 -77,107.102 -30,140 -82.3,152.699 -266.4,222.801 -400,340 -43,37.699 -77.4,82.102 -120,120.001 -91.9,81.6 -202,147.4 -250,280 -2.8,20.6 -26.699,20 -40,30 -2.699,97.3 -95.898,104.1 -140,160 -17.699,-54.59 32.996,-126.8 30,-200 45.496,-64.7 123.102,-73.2 170,-140 68.1,-97 52.4,-241.2 100,-370.001 -56.5,-44.398 -5,-147.199 -30,-210 115.8,-58.301 6,-219.898 50,-350 -165.098,-54.5 -400.496,-22.5 -620,-20 -127.699,1.5 -241.098,4.903 -350,40 29.301,111.903 -99.1992,136.5 -180,170 79.7031,-3.699 241.699,-11.5 350,-20 82.996,28.102 134.801,125.602 200,140 7.996,45.41 17.996,88.711 60,100 -2.898,34.801 -27.102,-0.801 -30,20 0,40 0,80 0,120 -96.402,89.699 -122.797,238.199 -170,390.001 -66.602,214 -171.199,455 -230,660 -23.199,81 -26.098,210.41 10,290 26.699,-30 44.301,-69 60,-110 37.203,-6.9 26.098,-4.8 70,-10 44.602,-68.2 132.5,-52.8 220,-90 23.398,30.7 9.703,7.8 30,-10 15.801,17.5 13.398,53.31 20,80 20.098,-3.4 31.301,2 30,20 44.703,-0.3 -21.898,-29.4 0,-70 18.699,31.3 22.402,77.6 50,100 -6.301,20.2 -14,-7.3 -20,-10 -43.102,-19 5.199,42.5 -30,0 36.402,104.7 -90,188.31 -170,240 -19.902,-23.4 -21.199,-65.5 -70,-60 24.301,-42.09 -28.398,-46 -40,-80 -92.797,10 -94.504,108 -110,170 33.902,19.8 205.496,-39.6 210,40 -29,47.7 -155,-1.7 -170,60 58.801,-11.1 124.703,-15.3 180,-30 20.496,2.8 20,26.7 30,40 -27.203,56.2 -132.102,34.5 -160,90 48.699,-11.3 95.297,-24.7 130,-50 33.199,16.8 45,55 110,40 2.102,35.4 -46.898,19.8 -40,60 44.398,-4.4 74.398,5.6 70,50 35.496,-1.1 36.301,-37 80,-30 0,-16.7 0,-33.3 0,-50 29.102,8.7 11.199,15 10,40 36.602,-40.1 85.098,-68.2 130,-100 2.598,29.3 -22.598,30.7 -20,60 7.5,-0.7 13.199,-1.4 17.301,-2 9.5,-3.1 15.801,-2.2 0,0 -6.203,2 -13.801,5.8 -17.301,12 -12.004,21 10.398,75.8 -30,60 16.602,20.4 97.598,70.8 50,90 34.504,5.5 34,46 70,50 -13.199,37.9 -65.098,42.2 -100,70 -100,79.8 -95,234.7 -170,350 56.898,56.5 119.902,106.8 170,170 -20,30 -37.5,62.5 -70,80 38.598,-10.5 23.902,66.2 40,80 6.5,17 22.996,6.3 20,-10 22.402,13.5 9.301,75.2 -10,80 4.398,14.8 12.797,-3.9 30,0 11.402,48.6 92.598,27.4 100,80 36.402,-6.7 16.199,-58.2 0,-70 56.801,-22 82.996,-13.4 150,-20 13.3,-16.8 -5.3,-55.5 30,-70 -7.4,52.1 35,-20.5 30,50 17,3.7 18.9,-7.8 20,-20 47,81.5 -67.7,247.1 10,310 -24.7,78.9 -17.8,143 -90,160 -6.6,52.5 -26.5,109.2 -60,130 -2.797,1.7 -26.098,6.4 -30,10 -2.898,2.6 13.598,14.2 10,20 -3.301,5.2 -54.301,51.3 -50.801,50.4" /><path
         id="path28"
         style="fill:#ffffff;fill-opacity:1;fill-rule:nonzero;stroke:none"
         d="m 1180,2040.2 c -15,-1.69 -36.9,3.6 -40,-10 15,1.7 36.9,-3.6 40,10 z m 70,30 c -17.8,-5.5 -41.5,-5.1 -50,-20 24.8,-1.5 48.5,-1.9 50,20 z m 700,500 c -6.6,-29.9 -21.4,9.6 -40,0 30.7,-9.7 32.4,-103.4 -20,-90 -1.9,-75.2 17.5,-129.2 10,-210 -46.3,-69.4 -27.2,-134 -50,-210 -31.2,-103.9 -13.6,-141.6 -80,-200 -45.5,-40 -36.1,-40.2 -90,-40 -15.6,0.1 -31.6,-19.19 -40,-20 -68.5,-6.69 -148.9,8.1 -240,-10 22.1,27.91 69,31 90,60 -9.4,-43.1 210.8,47.91 240,130 -74,6.6 -151,-62.9 -230,-60 -14.8,-4.4 3.9,-12.8 0,-30 -17.7,14 -76.9,-2.4 -100,-10 -28.1,-9.19 -31.3,-25.8 -50,-30 -26.4,-6 -79.4,21.7 -90,-30 -28.8,25.3 -59.3,18.8 -80,-10 -30.9,39.6 -152,-13.5 -160,30 -15.4,9.1 -23.199,-10.6 -40,-10 -26.699,0.9 -10,24.2 -30,30 -7.898,2.3 -35.801,-20.5 -40,-20 -14,1.7 -17.5,26.5 -30,30 -40.199,11.4 -80.199,-17.3 -110,-20 13.699,10 -26,29.9 -20,20 -25.602,41.7 -21.602,59.5 -20,130 -31.402,-15.2 -16.602,-76.69 -20,-120 -31.898,4.8 -6.801,66.5 -30,80 -13.199,-19.19 8.699,-47 -20,-70 -31.898,45.6 15.098,97.91 30,130 27.898,-12.8 -12.301,-39.9 -20,-50 38.199,-22.3 32.5,16.9 50,40 95.199,-7.5 247.102,12.1 360,20 -99.504,53.8 -203.902,102.8 -330,130 105.199,104.8 169.398,250.6 240,390 43.1,-26.9 68.2,-71.8 70,-140 10.2,6.5 10.3,23 30,20 0,-40 0,-80 0,-120 22.7,10.6 3.8,62.9 10,90 95.2,-78.1 177.2,-169.5 210,-310 65.8,7.5 111.9,34.8 190,30 -6.9,82.7 6.3,125.9 -20,190 -25.8,62.9 -110.4,115.1 -100,180 10.2,63.7 179.5,127.7 260,140 125.6,19.2 241.2,-13.2 310,-60" /><path
         id="path30"
         style="fill:#ffffff;fill-opacity:1;fill-rule:nonzero;stroke:none"
         d="m 1790,510.199 c 29.1,-8.699 11.2,-15 10,-40 -13.6,3.102 -8.3,25 -10,40" /><path
         id="path32"
         style="fill:#ffffff;fill-opacity:1;fill-rule:nonzero;stroke:none"
         d="m 1780,1590.2 c 34.4,-25.8 -51.4,-24.19 0,0 v 0" /><path
         id="path34"
         style="fill:#ffffff;fill-opacity:1;fill-rule:nonzero;stroke:none"
         d="m 1650,1760.2 c 1.2,22.1 42.4,4.3 60,10 -1.2,-22.09 -42.4,-4.19 -60,-10" /><path
         id="path36"
         style="fill:#ffffff;fill-opacity:1;fill-rule:nonzero;stroke:none"
         d="m 1430,1760.2 c -1.2,14.9 90.5,22.5 140,20 -29.3,-24 -86.5,-20.2 -140,-20" /><path
         id="path38"
         style="fill:#ffffff;fill-opacity:1;fill-rule:nonzero;stroke:none"
         d="m 1350,3480.2 c -13.1,23.6 -0.8,107.1 50,100 -16.6,-33.4 -33.4,-66.6 -50,-100" /><path
         id="path40"
         style="fill:#ffffff;fill-opacity:1;fill-rule:nonzero;stroke:none"
         d="m 1340,1740.2 c -42.7,15.81 49.3,57.6 40,10 -19.1,-4.7 -43,30.81 -40,-10" /><path
         id="path42"
         style="fill:#ffffff;fill-opacity:1;fill-rule:nonzero;stroke:none"
         d="m 1310,3580.2 c 19,-85.7 -12.1,-207.8 -40,-280 4.1,-33.8 38.8,26.6 30,-20 -17.7,-2.3 -50.1,10.1 -40,-20 -33.7,37.8 42,78.1 -20,100 20.4,2.5 41,56.7 50,100 -9.4,-17.2 -37,-16.4 -30,-50 -13.4,43.6 20.7,125.8 20,190 21.1,-46.4 -5.1,-77.9 0,-130 34.1,31.2 4.4,67.2 30,110" /><path
         id="path44"
         style="fill:#ffffff;fill-opacity:1;fill-rule:nonzero;stroke:none"
         d="m 1320,1740.2 c -47.4,7.4 -68.8,-11.2 -110,-10 15.8,15.3 102.1,51.7 110,10" /><path
         id="path46"
         style="fill:#231f20;fill-opacity:1;fill-rule:nonzero;stroke:none"
         d="m 1280,3800.2 c 7.8,18.2 10.8,-6 10,-20 -10.2,-6.5 -10.3,-23 -30,-20 -9.3,-16.8 -13.3,-23.8 -13.9,-24.6 0.6,2.3 24.2,46.5 33.9,64.6" /><path
         id="path48"
         style="fill:#ffffff;fill-opacity:1;fill-rule:nonzero;stroke:none"
         d="m 1280,3850.2 c 43.7,-38.7 11.5,-134.3 -10,-170 -20,0 -40,0 -60,0 17.7,48.7 -7.9,33.6 -20,70 64.9,-22.4 65.7,76.2 60,110 14.4,5.3 24.4,-39 30,-10 z m -33.9,-114.6 c 0.6,0.8 4.6,7.8 13.9,24.6 19.7,-3 19.8,13.5 30,20 0.8,14 -2.2,38.2 -10,20 -9.7,-18.1 -33.3,-62.3 -33.9,-64.6" /><path
         id="path50"
         style="fill:#231f20;fill-opacity:1;fill-rule:nonzero;stroke:none"
         d="m 1200,2050.2 c 8.5,14.9 32.2,14.5 50,20 -1.5,-21.9 -25.2,-21.5 -50,-20" /><path
         id="path52"
         style="fill:#ffffff;fill-opacity:1;fill-rule:nonzero;stroke:none"
         d="m 1190,3810.2 c 21.7,1.7 4.5,-35.5 10,-50 -17.4,9.1 -25.8,35 -10,50" /><path
         id="path54"
         style="fill:#ffffff;fill-opacity:1;fill-rule:nonzero;stroke:none"
         d="m 1160,1500.2 c 7.6,-15.7 31.7,-14.9 30,-40 -16.7,13.31 -33.5,26.5 -70,20 3.2,39.5 31,-7.4 40,20" /><path
         id="path56"
         style="fill:#231f20;fill-opacity:1;fill-rule:nonzero;stroke:none"
         d="m 1140,2030.2 c 3.1,13.6 25,8.31 40,10 -3.1,-13.6 -25,-8.3 -40,-10" /><path
         id="path58"
         style="fill:#ffffff;fill-opacity:1;fill-rule:nonzero;stroke:none"
         d="m 1170,1540.2 c 7,24.8 19.1,-43.1 -10,-30 -2.8,16.21 9.5,17.2 10,30" /><path
         id="path60"
         style="fill:#ffffff;fill-opacity:1;fill-rule:nonzero;stroke:none"
         d="m 1120,4200.2 c -10.1,30.1 22.3,17.7 40,20 -2.4,-17.6 -17.2,-22.8 -40,-20" /><path
         id="path62"
         style="fill:#ffffff;fill-opacity:1;fill-rule:nonzero;stroke:none"
         d="m 1140,1440.2 c -34.4,25.81 51.4,24.2 0,0 v 0" /><path
         id="path64"
         style="fill:#ffffff;fill-opacity:1;fill-rule:nonzero;stroke:none"
         d="m 1140,2440.2 c 0,-6.7 0,-13.3 0,-20 -10,0 -20,0 -30,0 0,6.7 0,13.3 0,20 10,0 20,0 30,0" /><path
         id="path66"
         style="fill:#ffffff;fill-opacity:1;fill-rule:nonzero;stroke:none"
         d="m 1120,3420.2 c 3.8,19 12.7,-6.4 10,-20 -3.8,-19 -12.7,6.4 -10,20" /><path
         id="path68"
         style="fill:#ffffff;fill-opacity:1;fill-rule:nonzero;stroke:none"
         d="m 1080,2500.2 c 24.1,4.1 21.7,-18.3 50,-10 -13.3,-9.7 -65.4,-37 -50,10" /><path
         id="path70"
         style="fill:#ffffff;fill-opacity:1;fill-rule:nonzero;stroke:none"
         d="m 1200,1730.2 c -57,-36.29 -124.9,-61.69 -180,-100 -1.2,-25 -19.1,-31.29 10,-40 -3.6,-13.2 -23.4,-10.2 -22.7,-27.7 -18.999,105.2 106.7,141.3 192.7,167.7" /><path
         id="path72"
         style="fill:#ffffff;fill-opacity:1;fill-rule:nonzero;stroke:none"
         d="m 1110,1400.2 c -4.3,-27.7 -31.5,-0.5 -20,20 10.9,-2.5 6.8,-19.9 20,-20" /><path
         id="path74"
         style="fill:#ffffff;fill-opacity:1;fill-rule:nonzero;stroke:none"
         d="m 1050,2880.2 c 32.4,-74.2 32.7,-180.6 50,-270 -37.5,69.1 -31.3,182.1 -50,270" /><path
         id="path76"
         style="fill:#ffffff;fill-opacity:1;fill-rule:nonzero;stroke:none"
         d="m 1040,1610.2 c 10,30.41 16.5,12.8 30,0 -4.4,-12.3 -12.8,-20.5 -30,-20 2,13.4 41.5,18.6 0,20" /><path
         id="path78"
         style="fill:#ffffff;fill-opacity:1;fill-rule:nonzero;stroke:none"
         d="m 980,3330.2 c 24.4,82.1 7.004,7.7 -20,50 -46.699,-23.3 -105.398,-34.6 -150,-60 56.898,-37.1 124.902,-51.4 150,20 2.203,-7.8 8.398,-11.6 20,-10 z m 50,120 c -7.4,-30.8 27.5,-19.2 20,-50 -42.5,12.5 -26.7,-33.3 -50,-40 23.2,4.6 24.5,1.3 50,-30 -45,-51.5 -70.297,-49.7 -140,-80 -11.699,-1.6 -8.398,-18.2 -10,-30 -27.402,21.6 -106.898,55.8 -120,110 -2.598,10.9 6.602,31.9 10,50 102.598,0.7 147.102,59.6 240,70" /><path
         id="path80"
         style="fill:#231f20;fill-opacity:1;fill-rule:nonzero;stroke:none"
         d="m 1020,3850.2 c -16.7,-19.9 0.9,-12.7 0,-40 -16.7,0 -33.301,0 -50,0 30.8,23.5 4,5.9 0,40 -56.199,-0.5 -85.398,-27.9 -120,-50 5.801,-20.9 37.797,14.4 60,10 -16,-17.3 -37.402,-29.3 -60,-40 31.699,-15.8 107.102,56.2 160,20 -71.199,-50.5 -169.398,-19.6 -220,-80 -44.301,101.1 67.996,131.9 120,170 41.801,-4.8 77.598,-15.7 110,-30" /><path
         id="path82"
         style="fill:#ffffff;fill-opacity:1;fill-rule:nonzero;stroke:none"
         d="m 1007.3,1562.5 c 0.6,-3.99 1.6,-8.1 2.7,-12.3 -1.9,5 -2.7,9.1 -2.7,12.3" /><path
         id="path84"
         style="fill:#231f20;fill-opacity:1;fill-rule:nonzero;stroke:none"
         d="m 960,3380.2 c 27.004,-42.3 44.4,32.1 20,-50 -11.602,-1.6 -17.797,2.2 -20,10 -25.098,-71.4 -93.102,-57.1 -150,-20 44.602,25.4 103.301,36.7 150,60" /><path
         id="path86"
         style="fill:#231f20;fill-opacity:1;fill-rule:nonzero;stroke:none"
         d="m 930,3720.2 c 4.398,12.3 12.797,20.5 30,20 -4.398,-12.3 -12.797,-20.5 -30,-20" /><path
         id="path88"
         style="fill:#ffffff;fill-opacity:1;fill-rule:nonzero;stroke:none"
         d="m 930,480.199 c 41.801,-6.687 4.703,-62.09 -20,-30 3.5,13.102 17.598,15.699 20,30" /><path
         id="path90"
         style="fill:#ffffff;fill-opacity:1;fill-rule:nonzero;stroke:none"
         d="m 860,390.199 c -25.098,4.301 16.602,21.5 30,20 -7.301,-9.301 -18.199,-15.097 -30,-20" /><path
         id="path92"
         style="fill:#ffffff;fill-opacity:1;fill-rule:nonzero;stroke:none"
         d="m 880,610.199 c 7.301,-27.301 -19.902,-20.097 -20,-40 -9.398,0.602 -9.902,99.699 0,50 0.297,-9.699 12.203,-7.801 20,-10" /><path
         id="path94"
         style="fill:#ffffff;fill-opacity:1;fill-rule:nonzero;stroke:none"
         d="m 930,3470.2 c -32.102,-37.9 -103.699,-36.3 -140,-70 -16.699,46.9 88.5,58 140,70" /><path
         id="path96"
         style="fill:#ffffff;fill-opacity:1;fill-rule:nonzero;stroke:none"
         d="m 820,640.199 c 9.504,-36.097 -39.398,-13.898 -60,-20 10.699,33.403 30.297,0.602 60,20" /><path
         id="path98"
         style="fill:#ffffff;fill-opacity:1;fill-rule:nonzero;stroke:none"
         d="m 807.301,2478.2 c 15.801,-2.2 9.5,-3.1 0,0 v 0" /><path
         id="path100"
         style="fill:#ffffff;fill-opacity:1;fill-rule:nonzero;stroke:none"
         d="m 810,370.199 c 28.598,-40.597 -32.699,-65.097 0,0 v 0" /><path
         id="path102"
         style="fill:#ffffff;fill-opacity:1;fill-rule:nonzero;stroke:none"
         d="m 820,520.199 c -4.102,-24.898 -38.801,-0.597 -30,20 13.102,-3.5 15.699,-17.597 30,-20" /><path
         id="path104"
         style="fill:#ffffff;fill-opacity:1;fill-rule:nonzero;stroke:none"
         d="m 730,510.199 c 19.301,19.403 61.199,10.5 50,-30 -28.598,-2 -54.602,-1.199 -50,30" /><path
         id="path106"
         style="fill:#ffffff;fill-opacity:1;fill-rule:nonzero;stroke:none"
         d="m 730,610.199 c 19.801,-6.898 26.699,-26.687 30,-50 -20.699,6 -37.898,15.5 -30,50" /><path
         id="path108"
         style="fill:#ffffff;fill-opacity:1;fill-rule:nonzero;stroke:none"
         d="m 740,550.199 c 4.902,-22.699 -55.199,-29.898 -30,-40 -7.301,-19.398 -47.598,11.5 -50,30 31.602,-15.597 43.902,5.5 80,10" /><path
         id="path110"
         style="fill:#ffffff;fill-opacity:1;fill-rule:nonzero;stroke:none"
         d="m 740,1810.2 c -35,-1 -84.102,5.2 -120,0 5.098,77.2 98.598,23.5 120,0" /><path
         id="path112"
         style="fill:#ffffff;fill-opacity:1;fill-rule:nonzero;stroke:none"
         d="m 700,2420.2 c -43.902,-4.3 -32.797,30.6 -70,10 -5.496,66 13.801,49.9 -20,100 24.102,4.1 21.699,-18.3 50,-10 1.5,-24.9 -15.699,-31 -20,-50 19.703,-16.9 59.801,-13.5 60,-50" /><path
         id="path114"
         style="fill:#ffffff;fill-opacity:1;fill-rule:nonzero;stroke:none"
         d="m 680,1880.2 c 0,-6.69 0,-13.3 0,-20 -6.699,0 -13.301,0 -20,0 0,6.7 0,13.31 0,20 6.699,0 13.301,0 20,0" /><path
         id="path116"
         style="fill:#ffffff;fill-opacity:1;fill-rule:nonzero;stroke:none"
         d="m 660,610.199 c 31.898,8.602 30.898,-15.699 50,-20 -22.5,-10.898 -18.5,-48.097 -60,-40 11.199,12.301 8.699,20.5 -10,20 0.098,19.903 27.301,12.699 20,40" /><path
         id="path118"
         style="fill:#231f20;fill-opacity:1;fill-rule:nonzero;stroke:none"
         d="m 710,3380.2 c -31.199,28.8 -44.602,75.4 -90,90 -1.402,35.3 -28.598,44.7 -30,80 28.699,-68 96.699,-96.7 120,-170" /><path
         id="path120"
         style="fill:#ffffff;fill-opacity:1;fill-rule:nonzero;stroke:none"
         d="m 660,510.199 c 4.199,-34.187 -2.996,-57 -40,-50 -3.199,23.199 1.602,38.403 10,50 10,0 20,0 30,0" /><path
         id="path122"
         style="fill:#ffffff;fill-opacity:1;fill-rule:nonzero;stroke:none"
         d="m 670,720.199 c -22.004,-30.5 -64,11.5 0,0 v 0" /><path
         id="path124"
         style="fill:#ffffff;fill-opacity:1;fill-rule:nonzero;stroke:none"
         d="m 610,2300.2 c 11.5,32.4 11.301,-26.9 10,-40 -11.5,-32.3 -11.301,26.9 -10,40" /><path
         id="path126"
         style="fill:#ffffff;fill-opacity:1;fill-rule:nonzero;stroke:none"
         d="m 580,2440.2 c 4.801,-31.5 -45.801,-7.5 -50,-30 -14.801,4.4 3.902,12.8 0,30 16.699,0 33.301,0 50,0" /><path
         id="path128"
         style="fill:#ffffff;fill-opacity:1;fill-rule:nonzero;stroke:none"
         d="m 420,2240.2 c 7.5,-80.4 -90.098,-76.2 -150,-60 0.199,23.6 -17.203,29.4 -10,60 67.301,-6.8 92.699,-6.8 160,0" /><path
         id="path130"
         style="fill:#ffffff;fill-opacity:1;fill-rule:nonzero;stroke:none"
         d="m 310,280.199 c 0,-6.687 0,-13.301 0,-20 -6.699,0 -13.301,0 -20,0 0,6.699 0,13.313 0,20 6.699,0 13.301,0 20,0" /><path
         id="path132"
         style="fill:#ffffff;fill-opacity:1;fill-rule:nonzero;stroke:none"
         d="m 270,1960.2 c 12.301,-4.4 20.496,-12.8 20,-30 -12.301,4.4 -20.496,12.8 -20,30" /><path
         id="path134"
         style="fill:#ffffff;fill-opacity:1;fill-rule:nonzero;stroke:none"
         d="m 270,360.199 c -22.004,-30.5 -64,11.5 0,0 v 0" /><path
         id="path136"
         style="fill:#ffffff;fill-opacity:1;fill-rule:nonzero;stroke:none"
         d="m 270,280.199 c -5.297,-28 -48.199,-18.5 -70,-30 -5,47 49.301,34.602 70,30" /><path
         id="path138"
         style="fill:#231f20;fill-opacity:1;fill-rule:nonzero;stroke:none"
         d="m 160,250.199 c 7.5,-38.097 -64.8008,-21.597 -50,10 9.703,-0.301 7.797,-12.199 10,-20 17.898,-1.289 21.098,12.199 40,10" /><path
         id="path140"
         style="fill:#231f20;fill-opacity:1;fill-rule:nonzero;stroke:none"
         d="m 0,330.199 c 40.4961,-54.699 117.301,-17.801 140,-80 -39.102,44.199 -109.1992,-2.301 -140,80" /></g></g></svg>